<?xml version="1.0" encoding="UTF-8"?><svg id="Layer_2" xmlns="http://www.w3.org/2000/svg" width="318.22" height="115.42" viewBox="0 0 318.22 115.42"><defs><style>.cls-1{fill:#fff;stroke-width:0px;}</style></defs><g id="Layer_1-2"><path class="cls-1" d="M71.52,64.13v-6.56c0-2.23,1.33-3.55,3.3-3.55,1.83,0,3.07,1.29,3.07,2.83,0,.95-.33,1.72-1.15,2.22.85.34,1.32.85,1.32,2.3v2.77h-1.34v-2.73c0-.98-.57-1.62-1.8-1.62h-1.48v-1.25h1.05c1.18,0,2.06-.54,2.06-1.65,0-.98-.82-1.62-1.73-1.62-1.15,0-1.96.77-1.96,1.92v6.95h-1.33Z"/><path class="cls-1" d="M81.36,61.88l-.51-.99,3.37-1.88c-.43-.43-.78-.65-1.55-.65-1.29,0-2.23.97-2.23,2.36s.94,2.36,2.23,2.36c1.48,0,2.03-.88,2.29-2.13l1.26.16c-.14,1.8-1.59,3.17-3.55,3.17s-3.54-1.45-3.54-3.55,1.65-3.55,3.54-3.55c1.59,0,2.66.84,3.3,2.16l-4.6,2.56Z"/><path class="cls-1" d="M91.84,58.5h-.97c-1.18,0-2.34.77-2.34,2.22s1.16,2.22,2.34,2.22h.97v1.19h-1.19c-1.59,0-3.42-1.22-3.42-3.41s1.83-3.41,3.42-3.41h1.19v1.19Z"/><path class="cls-1" d="M92.76,57.31h1.19v.78h.03c.43-.67,1.01-.92,1.85-.92h.28v1.19h-.18c-1.21,0-1.92.74-1.92,2.59v3.18h-1.25v-6.82Z"/><path class="cls-1" d="M98.74,61.88l-.51-.99,3.37-1.88c-.43-.43-.78-.65-1.55-.65-1.29,0-2.23.97-2.23,2.36s.94,2.36,2.23,2.36c1.48,0,2.03-.88,2.29-2.13l1.26.16c-.14,1.8-1.59,3.17-3.55,3.17s-3.54-1.45-3.54-3.55,1.65-3.55,3.54-3.55c1.59,0,2.66.84,3.3,2.16l-4.6,2.56Z"/><path class="cls-1" d="M110.06,64.13v-3.83c0-1.28-1.08-1.93-2.22-1.93-1.38,0-2.24,1.09-2.24,2.39s.92,2.33,2.23,2.33c.71,0,1.29-.4,1.72-.94v1.48c-.5.37-.98.65-1.85.65-1.96,0-3.35-1.62-3.35-3.62s1.34-3.48,3.52-3.48,3.44,1.28,3.44,3.24v3.72h-1.25Z"/><path class="cls-1" d="M116.42,58.5h-2.44v3.58c0,.64.3.85.94.85h1.51v1.19h-1.68c-1.28,0-2.02-.85-2.02-2.2v-6.32h1.25v1.71h2.44v1.19Z"/><path class="cls-1" d="M118.59,55.03c.48,0,.75.37.75.75s-.27.75-.75.75-.75-.37-.75-.75.27-.75.75-.75ZM117.97,64.13v-6.82h1.25v6.82h-1.25Z"/><path class="cls-1" d="M124.52,57.17c1.89,0,3.54,1.45,3.54,3.55s-1.65,3.55-3.54,3.55-3.54-1.45-3.54-3.55,1.65-3.55,3.54-3.55ZM124.52,63.08c1.29,0,2.23-.97,2.23-2.36s-.94-2.36-2.23-2.36-2.23.97-2.23,2.36.94,2.36,2.23,2.36Z"/><path class="cls-1" d="M129.11,64.13v-3.98c0-1.79,1.25-2.98,2.91-2.98s2.91,1.19,2.91,2.98v3.98h-1.25v-3.98c0-1.05-.77-1.79-1.66-1.79s-1.66.74-1.66,1.79v3.98h-1.25Z"/><path class="cls-1" d="M141.65,64.13v-3.83c0-1.28-1.08-1.93-2.22-1.93-1.38,0-2.24,1.09-2.24,2.39s.92,2.33,2.23,2.33c.71,0,1.29-.4,1.72-.94v1.48c-.5.37-.98.65-1.85.65-1.96,0-3.35-1.62-3.35-3.62s1.34-3.48,3.52-3.48,3.44,1.28,3.44,3.24v3.72h-1.25Z"/><path class="cls-1" d="M144.42,64.13v-9.94h1.25v9.94h-1.25Z"/><path class="cls-1" d="M157.32,55.43h-.91c-2.27,0-3.95,1.59-3.95,3.72,0,2.58,1.97,3.72,3.44,3.72h1.42v1.25h-1.42c-2.77,0-4.83-2.13-4.83-4.97,0-2.42,1.97-4.97,5.2-4.97h1.05v1.25Z"/><path class="cls-1" d="M161.63,57.17c1.89,0,3.54,1.45,3.54,3.55s-1.65,3.55-3.54,3.55-3.54-1.45-3.54-3.55,1.65-3.55,3.54-3.55ZM161.63,63.08c1.29,0,2.23-.97,2.23-2.36s-.94-2.36-2.23-2.36-2.23.97-2.23,2.36.94,2.36,2.23,2.36Z"/><path class="cls-1" d="M166.22,64.13v-3.98c0-1.79,1.25-2.98,2.91-2.98s2.91,1.19,2.91,2.98v3.98h-1.25v-3.98c0-1.05-.77-1.79-1.66-1.79s-1.66.74-1.66,1.79v3.98h-1.25Z"/><path class="cls-1" d="M177.21,58.5h-2.44v3.58c0,.64.3.85.94.85h1.51v1.19h-1.68c-1.28,0-2.02-.85-2.02-2.2v-6.32h1.25v1.71h2.44v1.19Z"/><path class="cls-1" d="M178.04,57.31h1.19v.78h.03c.43-.67,1.01-.92,1.85-.92h.28v1.19h-.18c-1.21,0-1.92.74-1.92,2.59v3.18h-1.25v-6.82Z"/><path class="cls-1" d="M187.44,64.13v-3.83c0-1.28-1.08-1.93-2.22-1.93-1.38,0-2.24,1.09-2.24,2.39s.92,2.33,2.23,2.33c.71,0,1.29-.4,1.72-.94v1.48c-.5.37-.98.65-1.85.65-1.96,0-3.35-1.62-3.35-3.62s1.34-3.48,3.52-3.48,3.44,1.28,3.44,3.24v3.72h-1.25Z"/><path class="cls-1" d="M194.49,58.5h-.97c-1.18,0-2.34.77-2.34,2.22s1.17,2.22,2.34,2.22h.97v1.19h-1.19c-1.59,0-3.42-1.22-3.42-3.41s1.83-3.41,3.42-3.41h1.19v1.19Z"/><path class="cls-1" d="M199.32,58.5h-2.44v3.58c0,.64.3.85.94.85h1.51v1.19h-1.68c-1.28,0-2.02-.85-2.02-2.2v-6.32h1.25v1.71h2.44v1.19Z"/><path class="cls-1" d="M203.47,57.17c1.89,0,3.54,1.45,3.54,3.55s-1.65,3.55-3.54,3.55-3.54-1.45-3.54-3.55,1.65-3.55,3.54-3.55ZM203.47,63.08c1.29,0,2.23-.97,2.23-2.36s-.94-2.36-2.23-2.36-2.23.97-2.23,2.36.94,2.36,2.23,2.36Z"/><path class="cls-1" d="M208.05,57.31h1.19v.78h.03c.43-.67,1.01-.92,1.85-.92h.29v1.19h-.19c-1.21,0-1.92.74-1.92,2.59v3.18h-1.25v-6.82Z"/><path class="cls-1" d="M211.77,62.93h3.5c.58,0,.81-.23.81-.65,0-1.25-4.3-.77-4.3-3.12,0-1.21.84-1.85,2.33-1.85h2.94v1.19h-3.15c-.61,0-.79.17-.81.6-.02,1.18,4.3.68,4.3,3.12,0,1.29-.91,1.9-2.12,1.9h-3.5v-1.19Z"/><path class="cls-1" d="M15.05,0C6.49,0,0,6.42,0,16.88v27.96h5.92v-28.34c0-6.93,3.72-10.96,9.13-10.96s9.13,4.03,9.13,10.96v2.77h-15.87v5.54h15.87v20.03h5.92v-27.96C30.1,6.42,23.61,0,15.05,0Z"/><path class="cls-1" d="M83.32,45.47c7.37,0,12.91-5.29,12.91-13.22V14.61h-5.54v17.63c0,4.66-3.4,7.93-7.37,7.93s-7.37-3.27-7.37-7.93V14.61h-5.54v17.63c0,7.93,5.54,13.22,12.91,13.22Z"/><path class="cls-1" d="M115.56,45.47c3.84,0,5.98-1.26,8.19-2.9v-6.55c-1.89,2.39-4.47,4.16-7.62,4.16-5.79,0-9.89-4.72-9.89-10.33s3.84-10.58,9.95-10.58c5.04,0,9.82,2.9,9.82,8.56v17h5.54v-16.5c0-8.69-5.92-14.36-15.24-14.36s-15.62,6.8-15.62,15.43,6.17,16.06,14.86,16.06Z"/><path class="cls-1" d="M160.72,36.4c0-10.83-19.14-8.63-19.08-13.85.06-1.89.88-2.65,3.59-2.65h13.98v-5.29h-13.04c-6.61,0-10.33,2.83-10.33,8.19,0,10.45,19.08,8.31,19.08,13.85,0,1.89-1.01,2.9-3.59,2.9h-15.49v5.29h15.49c5.35,0,9.38-2.71,9.38-8.44Z"/><path class="cls-1" d="M179.92,44.84h5.29v-5.29h-4.28c-5.23,0-10.39-3.4-10.39-9.82s5.16-9.82,10.39-9.82h4.28v-5.29h-5.29c-7.05,0-15.18,5.42-15.18,15.11s8.12,15.11,15.18,15.11Z"/><path class="cls-1" d="M203.04,45.47c3.84,0,5.98-1.26,8.19-2.9v-6.55c-1.89,2.39-4.47,4.16-7.62,4.16-5.79,0-9.89-4.72-9.89-10.33s3.84-10.58,9.95-10.58c5.04,0,9.82,2.9,9.82,8.56v17h5.54v-16.5c0-8.69-5.92-14.36-15.24-14.36s-15.62,6.8-15.62,15.43,6.17,16.06,14.86,16.06Z"/><path class="cls-1" d="M239.31,13.98c-8.88,0-15.24,6.68-15.24,16.62v27.83h.03v49.52c0,1.08-.88,1.96-1.96,1.96H66.96c-1.08,0-1.96-.88-1.96-1.96v-49.52h.06v-27.83c0-9.95-6.36-16.62-15.24-16.62-9.82,0-15.62,7.56-15.62,16.5,0,8.44,6.8,14.99,14.55,14.99,3.02,0,5.92-.63,8.56-2.14v-5.79c-2.02,1.39-5.1,2.64-7.62,2.64-5.98,0-9.95-4.16-9.95-10.39s4.16-10.52,10.08-10.52c5.29,0,9.7,4.03,9.7,12.34v20.59h-.02v55.75c0,4.12,3.35,7.46,7.46,7.46h155.19c4.11,0,7.46-3.35,7.46-7.46v-49.52h0v-26.83c0-8.31,4.41-12.34,9.7-12.34,5.92,0,10.08,4.35,10.08,10.52s-3.97,10.39-9.95,10.39c-2.52,0-5.6-1.26-7.62-2.64v5.79c2.65,1.51,5.54,2.14,8.56,2.14,7.75,0,14.55-6.55,14.55-14.99,0-8.94-5.79-16.5-15.62-16.5Z"/><path class="cls-1" d="M274.14,40.18c-5.73,0-9.89-4.28-9.89-10.45s4.16-10.45,9.89-10.45c3.4,0,4.97,1.01,6.86,2.9l-14.92,8.31,2.27,4.41,20.4-11.33c-2.83-5.86-7.56-9.57-14.61-9.57-8.38,0-15.68,6.42-15.68,15.74s7.3,15.74,15.68,15.74,15.11-6.05,15.74-14.04l-5.6-.69c-1.13,5.54-3.59,9.45-10.14,9.45Z"/><path class="cls-1" d="M299.14,22.54c.06-1.89.88-2.65,3.59-2.65h13.98v-5.29h-13.04c-6.61,0-10.33,2.83-10.33,8.19,0,10.45,19.08,8.31,19.08,13.85,0,1.89-1.01,2.9-3.59,2.9h-15.49v5.29h15.49c5.35,0,9.38-2.71,9.38-8.44,0-10.83-19.14-8.63-19.08-13.85Z"/><path class="cls-1" d="M103.38,96.43c-2.73,0-5.33-1.33-7.59-2.48-1.07-.54-2.08-1.06-3.05-1.43-1.8-.68-4.58-1.05-6.5.19-.5.32-.95.71-1.43,1.12-1.04.88-2.22,1.89-4,2.27-3.82.82-6.88-.74-9.57-2.11-2.08-1.06-4.04-2.05-6.26-2.05v-3c2.94,0,5.32,1.21,7.62,2.38,2.58,1.31,4.8,2.44,7.59,1.85,1.04-.22,1.77-.84,2.68-1.62.53-.45,1.09-.92,1.75-1.35,2.86-1.84,6.62-1.45,9.19-.47,1.12.43,2.25,1,3.34,1.56,4.03,2.05,6.67,3.14,9.44.97.29-.22.56-.45.83-.67,1.41-1.16,2.86-2.35,5.27-2.59,3.63-.35,6.58,1.07,8.75,2.34,2.67,1.58,4.74,2.16,6.93,1.94,1.51-.15,2.41-.89,3.66-1.92.29-.24.58-.48.89-.72,4.48-3.5,9.01-1.19,12.65.66,1.07.54,2.08,1.06,3.05,1.43,1.8.69,4.58,1.05,6.51-.19.51-.33.97-.71,1.46-1.11,1.03-.85,2.2-1.81,3.91-2.26,1.24-.32,2.08-.29,2.47-.24,2.89.03,5.23,1.22,7.5,2.38,2.58,1.31,4.8,2.44,7.59,1.85,1.04-.22,1.77-.84,2.68-1.62.53-.45,1.09-.92,1.75-1.35,2.86-1.84,6.62-1.45,9.19-.47,1.12.43,2.25,1,3.34,1.56,4.03,2.05,6.67,3.14,9.44.97.29-.22.56-.45.83-.67,1.41-1.16,2.86-2.35,5.27-2.59,3.63-.35,6.58,1.07,8.75,2.34,2.67,1.58,4.74,2.16,6.93,1.94l.29,2.99c-3.62.35-6.58-1.07-8.75-2.34-2.67-1.57-4.74-2.15-6.93-1.94-1.51.15-2.41.89-3.66,1.92-.29.24-.58.48-.89.72-4.48,3.49-9.01,1.19-12.65-.66-1.07-.54-2.08-1.06-3.05-1.43-1.8-.68-4.58-1.05-6.5.19-.5.32-.95.71-1.43,1.12-1.04.88-2.22,1.89-4,2.27-3.82.82-6.88-.74-9.57-2.11-2.08-1.06-4.04-2.05-6.27-2.05l-.31-.03s-.03,0-.1,0c-.18,0-.58.02-1.18.17-1.08.28-1.86.92-2.76,1.67-.53.44-1.08.89-1.74,1.32-2.86,1.84-6.63,1.45-9.2.47-1.12-.43-2.25-1-3.34-1.56-4.03-2.05-6.67-3.14-9.44-.97-.29.22-.56.45-.83.67-1.41,1.16-2.86,2.35-5.27,2.59-3.63.35-6.58-1.07-8.75-2.34-2.67-1.57-4.74-2.15-6.93-1.94-1.51.15-2.41.89-3.66,1.92-.29.23-.58.48-.89.72-1.69,1.32-3.4,1.81-5.06,1.81Z"/><path class="cls-1" d="M103.38,103.75c-2.73,0-5.33-1.33-7.59-2.48-1.07-.54-2.08-1.06-3.05-1.43-1.8-.68-4.58-1.05-6.5.19-.5.32-.95.71-1.43,1.12-1.04.88-2.22,1.89-4,2.27-3.82.81-6.88-.74-9.57-2.11-2.08-1.06-4.04-2.05-6.26-2.05v-3c2.94,0,5.32,1.21,7.62,2.38,2.58,1.31,4.8,2.44,7.59,1.85,1.04-.22,1.76-.84,2.68-1.62.53-.46,1.09-.92,1.75-1.35,2.86-1.84,6.62-1.45,9.19-.47,1.12.43,2.25,1,3.34,1.56,4.03,2.05,6.67,3.14,9.44.97.29-.22.56-.45.83-.67,1.41-1.16,2.86-2.35,5.27-2.59,3.62-.35,6.58,1.07,8.75,2.34,2.67,1.58,4.75,2.16,6.93,1.94,1.51-.15,2.41-.89,3.66-1.92.29-.24.58-.48.89-.72,4.48-3.5,9.01-1.19,12.65.66,1.07.54,2.08,1.06,3.05,1.43,1.8.69,4.58,1.05,6.51-.19.51-.33.97-.71,1.45-1.11,1.03-.85,2.2-1.81,3.92-2.26,1.24-.32,2.08-.29,2.47-.24,2.89.03,5.23,1.22,7.5,2.38,2.58,1.31,4.81,2.44,7.59,1.85,1.04-.22,1.76-.84,2.68-1.62.53-.46,1.09-.92,1.75-1.35,2.86-1.84,6.62-1.45,9.19-.47,1.12.43,2.25,1,3.34,1.56,4.03,2.05,6.67,3.14,9.44.97.29-.22.56-.45.83-.67,1.41-1.16,2.86-2.35,5.28-2.59,3.62-.35,6.58,1.07,8.75,2.34,2.67,1.58,4.75,2.15,6.93,1.94l.29,2.99c-3.63.35-6.58-1.07-8.75-2.34-2.67-1.58-4.75-2.15-6.93-1.94-1.51.15-2.41.89-3.66,1.92-.29.24-.58.48-.89.72-4.48,3.49-9.01,1.19-12.65-.66-1.07-.54-2.08-1.06-3.05-1.43-1.8-.68-4.58-1.05-6.5.19-.5.32-.95.71-1.43,1.12-1.04.88-2.22,1.89-4,2.27-3.82.81-6.88-.74-9.57-2.11-2.08-1.06-4.04-2.05-6.27-2.05l-.31-.03s-.03,0-.1,0c-.18,0-.58.02-1.18.17-1.08.28-1.86.92-2.76,1.67-.53.44-1.08.89-1.74,1.32-2.86,1.84-6.63,1.45-9.2.47-1.12-.43-2.25-1-3.34-1.56-4.02-2.05-6.67-3.13-9.44-.97-.29.23-.56.45-.83.67-1.41,1.16-2.86,2.35-5.27,2.59-3.62.35-6.58-1.07-8.75-2.34-2.67-1.58-4.74-2.16-6.93-1.94-1.51.15-2.41.89-3.66,1.92-.29.24-.58.48-.89.72-1.69,1.32-3.4,1.81-5.06,1.81Z"/><path class="cls-1" d="M103.38,81.46c-2.73,0-5.33-1.33-7.59-2.48-1.07-.54-2.08-1.06-3.05-1.43-1.8-.68-4.58-1.04-6.5.19-.5.32-.95.71-1.43,1.12-1.04.88-2.22,1.89-4,2.27-3.82.82-6.88-.74-9.57-2.11-2.08-1.06-4.04-2.05-6.26-2.05v-3c2.94,0,5.32,1.21,7.62,2.38,2.58,1.31,4.8,2.44,7.59,1.85,1.04-.22,1.77-.84,2.68-1.62.53-.45,1.09-.92,1.75-1.35,2.86-1.84,6.62-1.45,9.19-.47,1.12.43,2.25,1,3.34,1.56,4.03,2.05,6.67,3.14,9.44.97.29-.22.56-.45.83-.67,1.41-1.16,2.86-2.35,5.27-2.59,3.63-.35,6.58,1.07,8.75,2.34,2.67,1.57,4.74,2.16,6.93,1.94,1.51-.15,2.41-.89,3.66-1.92.29-.24.58-.48.89-.72,4.48-3.49,9.01-1.19,12.65.66,1.07.54,2.08,1.06,3.05,1.43,1.8.69,4.58,1.05,6.51-.19.51-.33.97-.71,1.46-1.11,1.03-.85,2.2-1.81,3.91-2.26,1.24-.32,2.08-.29,2.47-.24,2.89.03,5.23,1.22,7.5,2.38,2.58,1.31,4.8,2.44,7.59,1.85,1.04-.22,1.77-.84,2.68-1.62.53-.45,1.09-.92,1.75-1.35,2.86-1.84,6.62-1.45,9.19-.47,1.12.43,2.25,1,3.34,1.56,4.03,2.05,6.67,3.13,9.44.97.29-.22.56-.45.83-.67,1.41-1.16,2.86-2.35,5.28-2.59,3.62-.35,6.58,1.07,8.75,2.34,2.67,1.57,4.74,2.16,6.93,1.94l.29,2.99c-3.62.35-6.58-1.07-8.75-2.34-2.67-1.58-4.75-2.16-6.93-1.94-1.51.15-2.41.89-3.66,1.92-.29.24-.58.48-.89.72-4.48,3.49-9.01,1.19-12.65-.66-1.07-.54-2.08-1.06-3.05-1.43-1.8-.68-4.58-1.04-6.5.19-.5.32-.95.71-1.43,1.12-1.04.88-2.22,1.89-4,2.27-3.82.82-6.88-.74-9.57-2.11-2.08-1.06-4.04-2.05-6.27-2.05l-.31-.03s-.03,0-.1,0c-.18,0-.58.02-1.18.17-1.08.28-1.86.92-2.76,1.67-.53.44-1.08.89-1.74,1.32-2.86,1.84-6.63,1.45-9.2.47-1.12-.43-2.25-1-3.34-1.56-4.03-2.05-6.67-3.14-9.44-.97-.29.22-.56.45-.83.67-1.41,1.16-2.86,2.35-5.27,2.59-3.63.35-6.58-1.07-8.75-2.34-2.67-1.58-4.74-2.15-6.93-1.94-1.51.15-2.41.89-3.66,1.92-.29.24-.58.48-.89.72-1.69,1.32-3.4,1.81-5.06,1.81Z"/><path class="cls-1" d="M103.38,88.78c-2.73,0-5.33-1.33-7.59-2.48-1.07-.54-2.08-1.06-3.05-1.43-1.8-.68-4.58-1.05-6.5.19-.5.32-.95.71-1.43,1.12-1.04.88-2.22,1.89-4,2.27-3.82.81-6.88-.74-9.57-2.11-2.08-1.06-4.04-2.05-6.26-2.05v-3c2.94,0,5.32,1.21,7.62,2.38,2.58,1.31,4.8,2.44,7.59,1.85,1.04-.22,1.76-.84,2.68-1.62.53-.45,1.09-.92,1.75-1.35,2.86-1.84,6.62-1.45,9.19-.47,1.12.43,2.25,1,3.34,1.56,4.03,2.05,6.67,3.14,9.44.97.29-.22.56-.45.83-.67,1.41-1.16,2.86-2.35,5.27-2.59,3.62-.35,6.58,1.07,8.75,2.34,2.67,1.58,4.75,2.15,6.93,1.94,1.51-.15,2.41-.89,3.66-1.92.29-.24.58-.48.89-.72,4.48-3.5,9.01-1.19,12.65.66,1.07.54,2.08,1.06,3.05,1.43,1.8.68,4.58,1.04,6.51-.19.51-.33.97-.71,1.46-1.11,1.03-.85,2.2-1.81,3.91-2.26,1.24-.32,2.08-.29,2.47-.24,2.89.03,5.23,1.22,7.5,2.38,2.58,1.31,4.81,2.44,7.59,1.85,1.04-.22,1.76-.84,2.68-1.62.53-.45,1.09-.92,1.75-1.35,2.86-1.84,6.62-1.45,9.19-.47,1.12.43,2.25,1,3.34,1.56,4.03,2.05,6.67,3.14,9.44.97.29-.22.56-.45.83-.67,1.41-1.16,2.86-2.35,5.28-2.59,3.62-.35,6.58,1.07,8.75,2.34,2.67,1.58,4.75,2.15,6.93,1.94l.29,2.99c-3.63.35-6.58-1.07-8.75-2.34-2.67-1.58-4.75-2.16-6.93-1.94-1.51.15-2.41.89-3.66,1.92-.29.24-.58.48-.89.72-4.48,3.49-9.01,1.19-12.65-.66-1.07-.54-2.08-1.06-3.05-1.43-1.8-.68-4.58-1.05-6.5.19-.5.32-.95.71-1.43,1.12-1.04.88-2.22,1.89-4,2.27-3.82.81-6.88-.74-9.57-2.11-2.08-1.06-4.04-2.05-6.27-2.05l-.31-.03s-.03,0-.1,0c-.18,0-.58.02-1.18.17-1.08.28-1.86.92-2.76,1.67-.53.44-1.08.89-1.74,1.32-2.86,1.84-6.63,1.45-9.2.47-1.12-.43-2.25-1-3.34-1.56-4.03-2.05-6.67-3.14-9.45-.97-.29.22-.56.45-.83.67-1.41,1.16-2.86,2.35-5.28,2.59-3.62.35-6.58-1.07-8.75-2.34-2.67-1.58-4.74-2.15-6.93-1.94-1.51.15-2.41.89-3.66,1.92-.29.24-.58.48-.89.72-1.69,1.32-3.4,1.81-5.06,1.81Z"/></g></svg>