<?xml version="1.0" encoding="UTF-8"?><svg id="Layer_2" xmlns="http://www.w3.org/2000/svg" viewBox="0 0 318.3 115.5"><path d="M71.5,64.1v-6.6c-.44-4.36,6.47-4.6,6.4-.7,0,1.5-.3,1.7-1.2,2.2,1.75.23,1.24,3.71,1.3,5.1h-1.3c-.03-3.01.66-4.66-3.3-4.3v-1.2h1.1c2.56.3,2.86-3.42.4-3.3-.9,0-2,.8-2,1.9v7h-1.3l-.1-.1Z" style="fill:#385a8a;"/><path d="M81.4,61.9l-.5-1,3.4-1.9c-1.26-1.48-3.96-.46-3.8,1.7-.09,3.04,4.13,3.15,4.5.3l1.3.2c-.13,4.25-7.29,4.17-7.1-.3-.07-3.85,5.72-4.79,6.8-1.3l-4.6,2.6h0v-.3Z" style="fill:#385a8a;"/><path d="M91.8,58.5c-4.44-.63-4.35,5.02,0,4.4v1.2c-6.11.81-6.1-7.61,0-6.8v1.2Z" style="fill:#385a8a;"/><path d="M92.8,57.3h1.2v.8h0c.43-.8,1.24-.93,2.1-.9v1.2c-2.7-.51-2.03,4.03-2.1,5.8h-1.2c0-.13,0-6.78,0-6.9Z" style="fill:#385a8a;"/><path d="M98.7,61.9l-.5-1,3.4-1.9c-1.26-1.48-3.96-.46-3.8,1.7-.09,3.04,4.13,3.15,4.5.3l1.3.2c-.13,4.25-7.29,4.17-7.1-.3-.07-3.85,5.72-4.79,6.8-1.3l-4.6,2.6h0v-.3Z" style="fill:#385a8a;"/><path d="M110.1,64.1v-3.8c-.16-2.86-4.48-2.26-4.4.5-.2,2.18,3.09,3.17,3.9,1.4v1.5c-2.08,1.83-5.29-.17-5.1-2.9-.4-4.37,7.17-4.71,6.9-.3,0,0,0,3.7,0,3.7h-1.3v-.1Z" style="fill:#385a8a;"/><path d="M116.4,58.5h-2.4v3.6c-.11,1.2,1.7.7,2.4.8v1.2c-1.66.09-3.84.14-3.7-2.2,0,0,0-6.3,0-6.3h1.2v1.7h2.4v1.2h.1Z" style="fill:#385a8a;"/><path d="M118.6,55c1.06,0,1.06,1.59,0,1.6-1.06,0-1.06-1.59,0-1.6ZM118,64.1v-6.8h1.2v6.8h-1.2Z" style="fill:#385a8a;"/><path d="M124.5,57.2c4.62,0,4.51,6.99,0,7-4.55-.02-4.55-6.98,0-7ZM124.5,63.1c2.89.13,2.89-4.93,0-4.8-2.89-.13-2.89,4.93,0,4.8Z" style="fill:#385a8a;"/><path d="M129.1,64.1c.06-2.35-.75-7.17,2.9-7,3.64-.17,2.85,4.65,2.9,7h-1.2c-.21-1.48.84-5.85-1.7-5.8-2.54-.13-1.5,4.34-1.7,5.8h-1.2Z" style="fill:#385a8a;"/><path d="M141.6,64.1v-3.8c-.16-2.86-4.48-2.26-4.4.5-.2,2.18,3.09,3.17,3.9,1.4v1.5c-2.06,1.82-5.49-.12-5.3-2.9-.4-4.37,7.17-4.71,6.9-.3,0,0,0,3.7,0,3.7h-1.2l.1-.1Z" style="fill:#385a8a;"/><path d="M144.4,64.1v-9.9h1.2v9.9h-1.2Z" style="fill:#385a8a;"/><path d="M157.3,55.4c-6.68-.63-5.98,8.24,0,7.4v1.2c-8.18,1.13-8.33-11.03.1-10v1.2l-.1.2Z" style="fill:#385a8a;"/><path d="M161.6,57.2c4.58-.02,4.57,7.02,0,7-4.57.02-4.57-7.02,0-7ZM161.6,63.1c2.89.13,2.89-4.93,0-4.8-2.89-.13-2.89,4.93,0,4.8Z" style="fill:#385a8a;"/><path d="M166.2,64.1c.06-2.35-.75-7.17,2.9-7,3.64-.17,2.85,4.65,2.9,7h-1.2c-.21-1.48.84-5.85-1.7-5.8-2.54-.13-1.5,4.34-1.7,5.8h-1.2Z" style="fill:#385a8a;"/><path d="M177.2,58.5h-2.4v3.6c-.11,1.2,1.7.7,2.4.8v1.2c-1.66.09-3.84.14-3.7-2.2,0,0,0-6.3,0-6.3h1.2v1.7h2.4v1.2h.1Z" style="fill:#385a8a;"/><path d="M178,57.3h1.2v.8h0c.42-.8,1.27-.94,2.2-.9v1.2c-2.7-.51-2.03,4.03-2.1,5.8h-1.2v-6.8h0l-.1-.1Z" style="fill:#385a8a;"/><path d="M187.4,64.1v-3.8c-.16-2.86-4.48-2.26-4.4.5-.2,2.18,3.09,3.17,3.9,1.4v1.5c-2.06,1.82-5.49-.12-5.3-2.9-.4-4.37,7.17-4.71,6.9-.3,0,0,0,3.7,0,3.7h-1.2l.1-.1Z" style="fill:#385a8a;"/><path d="M194.5,58.5c-4.44-.63-4.35,5.02,0,4.4v1.2c-6.11.81-6.1-7.61,0-6.8v1.2Z" style="fill:#385a8a;"/><path d="M199.3,58.5h-2.4v3.6c-.11,1.2,1.7.7,2.4.8v1.2c-1.66.09-3.84.14-3.7-2.2,0,0,0-6.3,0-6.3h1.2v1.7h2.4v1.2h.1Z" style="fill:#385a8a;"/><path d="M203.5,57.2c4.58-.02,4.57,7.02,0,7-4.57.02-4.57-7.02,0-7ZM203.5,63.1c2.89.13,2.89-4.93,0-4.8-2.89-.13-2.89,4.93,0,4.8Z" style="fill:#385a8a;"/><path d="M208.1,57.3h1.2v.8h0c.42-.8,1.27-.94,2.2-.9v1.2c-2.7-.51-2.03,4.03-2.1,5.8h-1.2v-6.8l-.1-.1Z" style="fill:#385a8a;"/><path d="M211.8,62.9h3.5c.6,0,.8-.2.8-.7,0-1.2-4.3-.8-4.3-3.1s.8-1.8,2.3-1.8h2.9v1.2c-.57.17-4.06-.5-3.9.6,0,1.2,4.3.7,4.3,3.1s-.9,1.9-2.1,1.9h-3.5v-1.2h0Z" style="fill:#385a8a;"/><path d="M15.1,0C6.5,0,0,6.4,0,16.9v28h5.9v-28.3c0-6.9,3.7-11,9.1-11,6.79-.22,9.78,6.51,9.1,13.8h-15.9v5.5h15.9v20h5.9v-28C30.1,6.4,23.6,0,15.1,0Z" style="fill:#385a8a;"/><path d="M83.3,45.5c17.08-.5,12.25-19.48,12.9-30.9h-5.5v17.6c0,4.7-3.4,7.9-7.4,7.9s-7.4-3.3-7.4-7.9V14.6h-5.5c.64,11.45-4.14,30.29,12.9,30.8v.1Z" style="fill:#385a8a;"/><path d="M115.6,45.5c3.8,0,6-1.3,8.2-2.9v-6.5c-5.59,8.08-17.8,3.37-17.5-6.1-.62-12.69,19.48-14.92,19.7-2,0,0,0,17,0,17h5.5c-.38-12.82,3.79-30.61-15.2-30.9-20.69-.24-20.31,31.04-.7,31.5v-.1Z" style="fill:#385a8a;"/><path d="M160.7,36.4c0-10.8-19.1-8.6-19.1-13.9,0-1.9.9-2.6,3.6-2.6h14v-5.3c-7.42.54-23.66-2.96-23.3,8.2,0,10.4,18.98,8.3,19.1,13.9.05,2.39-1.43,3.16-3.6,2.9h-15.5v5.3h15.5c5.4,0,9.31-2.67,9.31-8.37h0v-.13Z" style="fill:#385a8a;"/><path d="M179.9,44.8h5.3v-5.3c-6.56.62-14.63-1.19-14.7-9.8.07-8.61,8.14-10.42,14.7-9.8v-5.3c-24.79-3.23-27.91,28.43-5.3,30.2Z" style="fill:#385a8a;"/><path d="M203,45.5c3.8,0,6-1.3,8.2-2.9v-6.5c-5.59,8.08-17.8,3.37-17.5-6.1-.62-12.69,19.48-14.92,19.7-2,0,0,0,17,0,17h5.5c-.38-12.82,3.79-30.61-15.2-30.9-20.69-.24-20.31,31.04-.7,31.5v-.1Z" style="fill:#385a8a;"/><path d="M274.1,40.2c-13.11.19-13.1-21.19,0-21,5.7,0,5,1,6.9,2.9l-14.9,8.3,2.3,4.4,20.4-11.3c-6.05-15.09-29.56-11.41-30.3,6.1.06,20.07,29.8,20.79,31.4,1.7l-5.6-.7c-1.1,5.5-3.6,9.4-10.1,9.4h0l-.1.2Z" style="fill:#385a8a;"/><path d="M299.1,22.5c0-1.9.9-2.6,3.6-2.6h14v-5.3c-7.42.54-23.66-2.96-23.3,8.2,0,10.5,18.98,8.3,19.1,13.8.06,2.55-1,2.9-3.6,2.9h-15.5v5.3h15.5c5.4,0,9.4-2.7,9.4-8.4,0-10.8-19.1-8.6-19.1-13.9h-.1Z" style="fill:#385a8a;"/><path d="M239.3,14c-8.98-.19-15.39,7.35-15.2,16.61,0,.54,0,27.79,0,27.79h0v19.8c-6.75-1.83-12.61-8.21-19.7-.9-6.25,4.72-14.01-7.62-21.9-2.1-9.23,9.45-16.18-7.54-26,1.2-2.05,2.12-5.56,2.34-8,1.3-5.09-2.23-10.98-6.55-16.6-1.4-1.2,1-2.1,1.8-3.7,1.9-7.59.26-13.61-9.28-21.8-.9-6.36,4.72-13.93-7.62-21.9-2.1-7.14,7.35-11.89-1.05-19.7-1.3v-15.5h0v-27.8c.18-22.6-30.65-21.22-30.8-.1,0,8.9,6.8,15,14.5,15s5.9-.6,8.6-2.1v-5.8c-7.02,5.3-17.89,2.12-17.6-7.8.09-14.17,20.95-14.41,19.8,1.8,0,0,0,20.6,0,20.6h0s0,55.8,0,55.8c0,4.1,3.3,7.5,7.5,7.5h155.2c4.1,0,7.5-3.3,7.5-7.5V31.6c-.83-16.15,19.32-15.84,19.8-1.8.33,10.44-12.13,13.25-17.6,7.8v5.8c24.28,11.76,33.39-27.41,7.5-29.4h.1ZM108.4,87c8.64-8.83,16.28,8.78,26.4-1.7,6.75-5,14.99,9.21,23.7.8,1.17-1.17,2.88-1.98,4.4-1.9,2.2,0,4.2,1,6.3,2.1,14.15,8,12.13-7.32,24.5-.1,3.6,1.9,8.2,4.2,12.7.7,1.46-1.09,2.76-2.51,4.6-2.6,4.45-.67,8.3,3.75,13.2,4.2v4.6c-6.78-1.84-12.58-8.2-19.7-.9-6.25,4.72-14.01-7.62-21.9-2.1-9.18,9.72-16.03-7.53-26,1.3-2.05,2.12-5.56,2.34-8,1.3-5.12-2.27-10.95-6.68-16.6-1.4-1.2,1-2.1,1.8-3.7,1.9-7.62.25-13.59-9.27-21.8-.9-6.36,4.72-13.93-7.62-21.9-2.1-7.09,7.61-11.84-1.1-19.7-1.3v-4.6c8.02,1.04,13.23,8.78,21.2.7,6.12-3.14,11.04,3.78,17.1,3.7,1.7,0,3.4-.5,5.1-1.8l.1.1ZM71.2,94c13.08,7.37,12.06-4.83,21.5-1.5,3.44,1.37,6.71,3.89,10.6,3.9,3.68.53,6.27-3.9,9.7-4.4,7.55-.27,13.63,9.28,21.8.9,6.28-4.72,13.99,7.62,21.9,2.1,1.83-1.2,3.45-3.26,5.7-3.2,2.37-.1,4.47.92,6.7,2.1,14.15,7.99,12.13-7.32,24.5-.1,3.6,1.9,8.2,4.2,12.7.7,1.49-1.09,2.65-2.51,4.6-2.6,4.44-.67,8.3,3.75,13.2,4.2v4.3c-6.78-1.84-12.58-8.2-19.7-.9-6.25,4.72-14.01-7.62-21.9-2.1-9.24,9.75-15.89-7.65-26,1.2-1.96,2.19-5.5,2.3-7.9,1.3-5.12-2.27-10.95-6.68-16.6-1.4-1.2,1-2.1,1.8-3.7,1.9-7.62.25-13.59-9.27-21.8-.9-6.36,4.72-13.93-7.62-21.9-2.1-7.09,7.61-11.84-1.1-19.7-1.3v-4.3c2.2,0,4.2,1,6.2,2l.1.2ZM71.2,79c13.08,7.37,12.06-4.83,21.5-1.5,3.44,1.37,6.71,3.89,10.6,3.9,3.68.53,6.27-3.9,9.7-4.4,7.58-.26,13.61,9.27,21.8.9,6.28-4.72,13.99,7.62,21.9,2.1,1.84-1.24,3.44-3.21,5.7-3.2,2.37-.1,4.47.92,6.7,2.1,14.15,7.99,12.13-7.32,24.5-.1,3.6,1.8,8.2,4.1,12.7.7,1.45-1.09,2.76-2.51,4.6-2.6,4.44-.67,8.3,3.75,13.2,4.2v4.3c-6.75-1.83-12.61-8.21-19.7-.9-6.25,4.72-14.01-7.62-21.9-2.1-9.23,9.45-16.18-7.54-26,1.2-2.05,2.12-5.56,2.34-8,1.3-5.1-2.22-10.97-6.64-16.6-1.4-1.2,1-2.1,1.8-3.7,1.9-7.62.25-13.59-9.27-21.8-.9-6.36,4.72-13.93-7.62-21.9-2.1-7.14,7.35-11.89-1.05-19.7-1.3v-4.3c2.23.06,4.48.97,6.4,2.2ZM222.1,109.9H67c-1.1,0-2-.9-2-2v-8.7c8.02,1.04,13.23,8.78,21.2.7,6.13-3.17,11.04,3.85,17.1,3.7,3.68.53,6.27-3.9,9.7-4.4,7.55-.27,13.63,9.28,21.8.9,6.28-4.72,13.99,7.62,21.9,2.1,1.83-1.2,3.45-3.26,5.7-3.2,2.37-.1,4.47.92,6.7,2.1,14.15,7.99,12.13-7.32,24.5-.1,3.6,1.8,8.2,4.2,12.6.7,1.45-1.09,2.76-2.51,4.6-2.6,4.44-.67,8.3,3.75,13.2,4.2-.22,1.74.96,6.44-2,6.4l.1.2Z" style="fill:#385a8a;"/></svg>