<?xml version="1.0" encoding="UTF-8"?>
<svg id="Layer_2" xmlns="http://www.w3.org/2000/svg" version="1.1" viewBox="0 0 318.2 115.4">
  <!-- Generator: Adobe Illustrator 29.0.1, SVG Export Plug-In . SVG Version: 2.1.0 Build 192)  -->
  <path d="M71.5,64.1v-6.6c0-2.2,1.3-3.5,3.3-3.5s3.1,1.3,3.1,2.8-.3,1.7-1.2,2.2c.8.3,1.3.8,1.3,2.3v2.8h-1.3v-2.7c0-1-.6-1.6-1.8-1.6h-1.5v-1.2h1.1c1.2,0,2.1-.5,2.1-1.7s-.8-1.6-1.7-1.6-2,.8-2,1.9v7h-1.3Z"/>
  <path d="M81.4,61.9l-.5-1,3.4-1.9c-.4-.4-.8-.7-1.6-.7-1.3,0-2.2,1-2.2,2.4s.9,2.4,2.2,2.4,2-.9,2.3-2.1l1.3.2c-.1,1.8-1.6,3.2-3.6,3.2s-3.5-1.5-3.5-3.5,1.7-3.5,3.5-3.5,2.7.8,3.3,2.2l-4.6,2.6h0Z"/>
  <path d="M91.8,58.5h-1c-1.2,0-2.3.8-2.3,2.2s1.2,2.2,2.3,2.2h1v1.2h-1.2c-1.6,0-3.4-1.2-3.4-3.4s1.8-3.4,3.4-3.4h1.2s0,1.2,0,1.2Z"/>
  <path d="M92.8,57.3h1.2v.8h0c.4-.7,1-.9,1.8-.9h.3v1.2h-.2c-1.2,0-1.9.7-1.9,2.6v3.2h-1.2s0-6.8,0-6.8Z"/>
  <path d="M98.7,61.9l-.5-1,3.4-1.9c-.4-.4-.8-.7-1.6-.7-1.3,0-2.2,1-2.2,2.4s.9,2.4,2.2,2.4,2-.9,2.3-2.1l1.3.2c-.1,1.8-1.6,3.2-3.6,3.2s-3.5-1.5-3.5-3.5,1.7-3.5,3.5-3.5,2.7.8,3.3,2.2l-4.6,2.6h0Z"/>
  <path d="M110.1,64.1v-3.8c0-1.3-1.1-1.9-2.2-1.9s-2.2,1.1-2.2,2.4.9,2.3,2.2,2.3,1.3-.4,1.7-.9v1.5c-.5.4-1,.7-1.8.7-2,0-3.3-1.6-3.3-3.6s1.3-3.5,3.5-3.5,3.4,1.3,3.4,3.2v3.7h-1.3Z"/>
  <path d="M116.4,58.5h-2.4v3.6c0,.6.3.8.9.8h1.5v1.2h-1.7c-1.3,0-2-.8-2-2.2v-6.3h1.2v1.7h2.4s0,1.2,0,1.2Z"/>
  <path d="M118.6,55c.5,0,.8.4.8.8s-.3.8-.8.8-.8-.4-.8-.8.3-.8.8-.8ZM118,64.1v-6.8h1.2v6.8h-1.2Z"/>
  <path d="M124.5,57.2c1.9,0,3.5,1.5,3.5,3.5s-1.7,3.5-3.5,3.5-3.5-1.5-3.5-3.5,1.7-3.5,3.5-3.5ZM124.5,63.1c1.3,0,2.2-1,2.2-2.4s-.9-2.4-2.2-2.4-2.2,1-2.2,2.4.9,2.4,2.2,2.4Z"/>
  <path d="M129.1,64.1v-4c0-1.8,1.2-3,2.9-3s2.9,1.2,2.9,3v4h-1.2v-4c0-1-.8-1.8-1.7-1.8s-1.7.7-1.7,1.8v4h-1.2Z"/>
  <path d="M141.6,64.1v-3.8c0-1.3-1.1-1.9-2.2-1.9s-2.2,1.1-2.2,2.4.9,2.3,2.2,2.3,1.3-.4,1.7-.9v1.5c-.5.4-1,.7-1.9.7-2,0-3.4-1.6-3.4-3.6s1.3-3.5,3.5-3.5,3.4,1.3,3.4,3.2v3.7h-1.2,0Z"/>
  <path d="M144.4,64.1v-9.9h1.2v9.9h-1.2Z"/>
  <path d="M157.3,55.4h-.9c-2.3,0-3.9,1.6-3.9,3.7s2,3.7,3.4,3.7h1.4v1.2h-1.4c-2.8,0-4.8-2.1-4.8-5s2-5,5.2-5h1.1v1.2Z"/>
  <path d="M161.6,57.2c1.9,0,3.5,1.5,3.5,3.5s-1.6,3.5-3.5,3.5-3.5-1.5-3.5-3.5,1.6-3.5,3.5-3.5ZM161.6,63.1c1.3,0,2.2-1,2.2-2.4s-.9-2.4-2.2-2.4-2.2,1-2.2,2.4.9,2.4,2.2,2.4Z"/>
  <path d="M166.2,64.1v-4c0-1.8,1.2-3,2.9-3s2.9,1.2,2.9,3v4h-1.2v-4c0-1-.8-1.8-1.7-1.8s-1.7.7-1.7,1.8v4h-1.2Z"/>
  <path d="M177.2,58.5h-2.4v3.6c0,.6.3.8.9.8h1.5v1.2h-1.7c-1.3,0-2-.8-2-2.2v-6.3h1.2v1.7h2.4v1.2Z"/>
  <path d="M178,57.3h1.2v.8h0c.4-.7,1-.9,1.9-.9h.3v1.2h-.2c-1.2,0-1.9.7-1.9,2.6v3.2h-1.2v-6.8h0Z"/>
  <path d="M187.4,64.1v-3.8c0-1.3-1.1-1.9-2.2-1.9s-2.2,1.1-2.2,2.4.9,2.3,2.2,2.3,1.3-.4,1.7-.9v1.5c-.5.4-1,.7-1.9.7-2,0-3.4-1.6-3.4-3.6s1.3-3.5,3.5-3.5,3.4,1.3,3.4,3.2v3.7h-1.2,0Z"/>
  <path d="M194.5,58.5h-1c-1.2,0-2.3.8-2.3,2.2s1.2,2.2,2.3,2.2h1v1.2h-1.2c-1.6,0-3.4-1.2-3.4-3.4s1.8-3.4,3.4-3.4h1.2s0,1.2,0,1.2Z"/>
  <path d="M199.3,58.5h-2.4v3.6c0,.6.3.8.9.8h1.5v1.2h-1.7c-1.3,0-2-.8-2-2.2v-6.3h1.2v1.7h2.4v1.2Z"/>
  <path d="M203.5,57.2c1.9,0,3.5,1.5,3.5,3.5s-1.6,3.5-3.5,3.5-3.5-1.5-3.5-3.5,1.6-3.5,3.5-3.5ZM203.5,63.1c1.3,0,2.2-1,2.2-2.4s-.9-2.4-2.2-2.4-2.2,1-2.2,2.4.9,2.4,2.2,2.4Z"/>
  <path d="M208.1,57.3h1.2v.8h0c.4-.7,1-.9,1.9-.9h.3v1.2h-.2c-1.2,0-1.9.7-1.9,2.6v3.2h-1.2s0-6.8,0-6.8Z"/>
  <path d="M211.8,62.9h3.5c.6,0,.8-.2.8-.7,0-1.2-4.3-.8-4.3-3.1s.8-1.8,2.3-1.8h2.9v1.2h-3.1c-.6,0-.8.2-.8.6,0,1.2,4.3.7,4.3,3.1s-.9,1.9-2.1,1.9h-3.5v-1.2h0Z"/>
  <path d="M15.1,0C6.5,0,0,6.4,0,16.9v28h5.9v-28.3c0-6.9,3.7-11,9.1-11s9.1,4,9.1,11v2.8h-15.9v5.5h15.9v20h5.9v-28C30.1,6.4,23.6,0,15.1,0Z"/>
  <path d="M83.3,45.5c7.4,0,12.9-5.3,12.9-13.2V14.6h-5.5v17.6c0,4.7-3.4,7.9-7.4,7.9s-7.4-3.3-7.4-7.9V14.6h-5.5v17.6c0,7.9,5.5,13.2,12.9,13.2h0Z"/>
  <path d="M115.6,45.5c3.8,0,6-1.3,8.2-2.9v-6.5c-1.9,2.4-4.5,4.2-7.6,4.2-5.8,0-9.9-4.7-9.9-10.3s3.8-10.6,9.9-10.6,9.8,2.9,9.8,8.6v17h5.5v-16.5c0-8.7-5.9-14.4-15.2-14.4s-15.6,6.8-15.6,15.4,6.2,16.1,14.9,16.1h0Z"/>
  <path d="M160.7,36.4c0-10.8-19.1-8.6-19.1-13.9,0-1.9.9-2.6,3.6-2.6h14v-5.3h-13c-6.6,0-10.3,2.8-10.3,8.2,0,10.4,19.1,8.3,19.1,13.9s-1,2.9-3.6,2.9h-15.5v5.3h15.5c5.4,0,9.4-2.7,9.4-8.4h0Z"/>
  <path d="M179.9,44.8h5.3v-5.3h-4.3c-5.2,0-10.4-3.4-10.4-9.8s5.2-9.8,10.4-9.8h4.3v-5.3h-5.3c-7.1,0-15.2,5.4-15.2,15.1s8.1,15.1,15.2,15.1h0Z"/>
  <path d="M203,45.5c3.8,0,6-1.3,8.2-2.9v-6.5c-1.9,2.4-4.5,4.2-7.6,4.2-5.8,0-9.9-4.7-9.9-10.3s3.8-10.6,9.9-10.6,9.8,2.9,9.8,8.6v17h5.5v-16.5c0-8.7-5.9-14.4-15.2-14.4s-15.6,6.8-15.6,15.4,6.2,16.1,14.9,16.1h0Z"/>
  <path d="M274.1,40.2c-5.7,0-9.9-4.3-9.9-10.5s4.2-10.5,9.9-10.5,5,1,6.9,2.9l-14.9,8.3,2.3,4.4,20.4-11.3c-2.8-5.9-7.6-9.6-14.6-9.6s-15.7,6.4-15.7,15.7,7.3,15.7,15.7,15.7,15.1-6,15.7-14l-5.6-.7c-1.1,5.5-3.6,9.4-10.1,9.4h0Z"/>
  <path d="M299.1,22.5c0-1.9.9-2.6,3.6-2.6h14v-5.3h-13c-6.6,0-10.3,2.8-10.3,8.2,0,10.5,19.1,8.3,19.1,13.8s-1,2.9-3.6,2.9h-15.5v5.3h15.5c5.4,0,9.4-2.7,9.4-8.4,0-10.8-19.1-8.6-19.1-13.9h0Z"/>
  <path d="M239.3,14h0c-8.9,0-15.2,6.7-15.2,16.6v27.8h0v19.8c-1.5-.2-3-.8-4.8-1.9-2.2-1.3-5.1-2.7-8.8-2.3-2.4.2-3.9,1.4-5.3,2.6-.3.2-.5.4-.8.7-2.8,2.2-5.4,1.1-9.4-1-1.1-.6-2.2-1.1-3.3-1.6-2.6-1-6.3-1.4-9.2.5-.7.4-1.2.9-1.8,1.3-.9.8-1.6,1.4-2.7,1.6-2.8.6-5-.5-7.6-1.8-2.3-1.2-4.6-2.3-7.5-2.4-.4,0-1.2,0-2.5.2-1.7.5-2.9,1.4-3.9,2.3-.5.4-1,.8-1.5,1.1-1.9,1.2-4.7.9-6.5.2-1-.4-2-.9-3-1.4-3.6-1.8-8.2-4.1-12.7-.7-.3.2-.6.5-.9.7-1.2,1-2.1,1.8-3.7,1.9-2.2.2-4.3-.4-6.9-1.9-2.2-1.3-5.1-2.7-8.8-2.3-2.4.2-3.9,1.4-5.3,2.6-.3.2-.5.4-.8.7-2.8,2.2-5.4,1.1-9.4-1-1.1-.6-2.2-1.1-3.3-1.6-2.6-1-6.3-1.4-9.2.5-.7.4-1.2.9-1.8,1.3-.9.8-1.6,1.4-2.7,1.6-2.8.6-5-.5-7.6-1.8-2.3-1.2-4.7-2.4-7.6-2.4v-15.5h0v-27.8c0-10-6.4-16.6-15.2-16.6s-15.6,7.6-15.6,16.5,6.8,15,14.5,15,5.9-.6,8.6-2.1v-5.8c-2,1.4-5.1,2.6-7.6,2.6-6,0-10-4.2-10-10.4s4.2-10.5,10.1-10.5,9.7,4,9.7,12.3v20.6h0v55.8c0,4.1,3.3,7.5,7.5,7.5h155.2c4.1,0,7.5-3.3,7.5-7.5V31.6c0-8.3,4.4-12.3,9.7-12.3s10.1,4.3,10.1,10.5-4,10.4-10,10.4-5.6-1.3-7.6-2.6v5.8c2.7,1.5,5.5,2.1,8.6,2.1,7.8,0,14.5-6.5,14.5-15s-5.8-16.5-15.6-16.5ZM108.4,87c.3-.2.6-.5.9-.7,1.2-1,2.2-1.8,3.7-1.9,2.2-.2,4.3.4,6.9,1.9,2.2,1.3,5.1,2.7,8.8,2.3,2.4-.2,3.9-1.4,5.3-2.6.3-.2.5-.5.8-.7,2.8-2.2,5.4-1.1,9.5,1,1.1.6,2.2,1.1,3.3,1.6,2.6,1,6.3,1.4,9.2-.5.7-.4,1.2-.9,1.7-1.3.9-.8,1.7-1.4,2.8-1.7.6-.1,1-.2,1.2-.2h.4c2.2,0,4.2,1,6.3,2.1,2.7,1.4,5.8,2.9,9.6,2.1,1.8-.4,3-1.4,4-2.3.5-.4.9-.8,1.4-1.1,1.9-1.2,4.7-.9,6.5-.2,1,.4,2,.9,3,1.4,3.6,1.9,8.2,4.2,12.7.7.3-.2.6-.5.9-.7,1.2-1,2.2-1.8,3.7-1.9,2.2-.2,4.3.4,6.9,1.9,1.7,1,3.8,2,6.3,2.3v4.6c-1.5-.2-3-.8-4.8-1.9-2.2-1.3-5.1-2.7-8.8-2.3-2.4.2-3.9,1.4-5.3,2.6-.3.2-.5.5-.8.7-2.8,2.2-5.4,1.1-9.4-1-1.1-.6-2.2-1.1-3.3-1.6-2.6-1-6.3-1.4-9.2.5-.7.4-1.2.9-1.8,1.4-.9.8-1.6,1.4-2.7,1.6-2.8.6-5-.5-7.6-1.8-2.3-1.2-4.6-2.4-7.5-2.4-.4,0-1.2,0-2.5.2-1.7.5-2.9,1.4-3.9,2.3-.5.4-1,.8-1.5,1.1-1.9,1.2-4.7.9-6.5.2-1-.4-2-.9-3-1.4-3.6-1.9-8.2-4.2-12.7-.7-.3.2-.6.5-.9.7-1.2,1-2.1,1.8-3.7,1.9-2.2.2-4.3-.4-6.9-1.9-2.2-1.3-5.1-2.7-8.8-2.3-2.4.2-3.9,1.4-5.3,2.6-.3.2-.5.5-.8.7-2.8,2.2-5.4,1.1-9.4-1-1.1-.6-2.2-1.1-3.3-1.6-2.6-1-6.3-1.4-9.2.5-.7.4-1.2.9-1.8,1.4-.9.8-1.6,1.4-2.7,1.6-2.8.6-5-.5-7.6-1.9-2.3-1.2-4.7-2.4-7.6-2.4v-4.6c2.2,0,4.2,1,6.2,2,2.7,1.4,5.8,2.9,9.6,2.1,1.8-.4,3-1.4,4-2.3.5-.4.9-.8,1.4-1.1,1.9-1.2,4.7-.9,6.5-.2,1,.4,2,.9,3,1.4,2.3,1.1,4.9,2.5,7.6,2.5h0c1.7,0,3.4-.5,5.1-1.8ZM71.2,94c2.7,1.4,5.8,2.9,9.6,2.1,1.8-.4,3-1.4,4-2.3.5-.4.9-.8,1.4-1.1,1.9-1.2,4.7-.9,6.5-.2,1,.4,2,.9,3,1.4,2.3,1.2,4.9,2.5,7.6,2.5h0c1.7,0,3.4-.5,5.1-1.8.3-.2.6-.5.9-.7,1.2-1,2.2-1.8,3.7-1.9,2.2-.2,4.3.4,6.9,1.9,2.2,1.3,5.1,2.7,8.8,2.3,2.4-.2,3.9-1.4,5.3-2.6.3-.2.5-.4.8-.7,2.8-2.2,5.4-1.1,9.4,1,1.1.6,2.2,1.1,3.3,1.6,2.6,1,6.3,1.4,9.2-.5.7-.4,1.2-.9,1.7-1.3.9-.8,1.7-1.4,2.8-1.7.6-.2,1-.2,1.2-.2h.4c2.2,0,4.2,1,6.3,2.1,2.7,1.4,5.8,2.9,9.6,2.1,1.8-.4,3-1.4,4-2.3.5-.4.9-.8,1.4-1.1,1.9-1.2,4.7-.9,6.5-.2,1,.4,2,.9,3,1.4,3.6,1.9,8.2,4.2,12.7.7.3-.2.6-.5.9-.7,1.2-1,2.1-1.8,3.7-1.9,2.2-.2,4.3.4,6.9,1.9,1.7,1,3.8,2,6.3,2.3v4.3c-1.5-.2-3-.8-4.8-1.9-2.2-1.3-5.1-2.7-8.8-2.3-2.4.2-3.9,1.4-5.3,2.6-.3.2-.5.5-.8.7-2.8,2.2-5.4,1.1-9.4-1-1.1-.6-2.2-1.1-3.3-1.6-2.6-1-6.3-1.4-9.2.5-.7.4-1.2.9-1.8,1.4-.9.8-1.6,1.4-2.7,1.6-2.8.6-5-.5-7.6-1.9-2.3-1.2-4.6-2.3-7.5-2.4-.4,0-1.2,0-2.5.2-1.7.5-2.9,1.4-3.9,2.3-.5.4-.9.8-1.4,1.1-1.9,1.2-4.7.9-6.5.2-1-.4-2-.9-3-1.4-3.6-1.9-8.2-4.2-12.7-.7-.3.2-.6.5-.9.7-1.2,1-2.1,1.8-3.7,1.9-2.2.2-4.3-.4-6.9-1.9-2.2-1.3-5.1-2.7-8.8-2.3-2.4.2-3.9,1.4-5.3,2.6-.3.2-.5.5-.8.7-2.8,2.2-5.4,1.1-9.4-1-1.1-.6-2.2-1.1-3.3-1.6-2.6-1-6.3-1.4-9.2.5-.7.4-1.2.9-1.8,1.4-.9.8-1.6,1.4-2.7,1.6-2.8.6-5-.5-7.6-1.9-2.3-1.2-4.7-2.4-7.6-2.4v-4.3c2.2,0,4.2,1,6.2,2ZM71.2,79c2.7,1.4,5.8,2.9,9.6,2.1,1.8-.4,3-1.4,4-2.3.5-.4.9-.8,1.4-1.1,1.9-1.2,4.7-.9,6.5-.2,1,.4,2,.9,3,1.4,2.3,1.2,4.9,2.5,7.6,2.5h0c1.7,0,3.4-.5,5.1-1.8.3-.2.6-.5.9-.7,1.2-1,2.2-1.8,3.7-1.9,2.2-.2,4.3.4,6.9,1.9,2.2,1.3,5.1,2.7,8.8,2.3,2.4-.2,3.9-1.4,5.3-2.6.3-.2.5-.5.8-.7,2.8-2.2,5.4-1.1,9.4,1,1.1.6,2.2,1.1,3.3,1.6,2.6,1,6.3,1.4,9.2-.5.7-.4,1.2-.9,1.7-1.3.9-.8,1.7-1.4,2.8-1.7.6-.1,1-.2,1.2-.2h.4c2.2,0,4.2,1,6.3,2.1,2.7,1.4,5.8,2.9,9.6,2.1,1.8-.4,3-1.4,4-2.3.5-.4.9-.8,1.4-1.1,1.9-1.2,4.7-.9,6.5-.2,1,.4,2,.9,3,1.4,3.6,1.8,8.2,4.1,12.7.7.3-.2.6-.5.9-.7,1.2-1,2.2-1.8,3.7-1.9,2.2-.2,4.3.4,6.9,1.9,1.7,1,3.8,2,6.3,2.3v4.3c-1.5-.2-3-.8-4.8-1.9-2.2-1.3-5.1-2.7-8.8-2.3-2.4.2-3.9,1.4-5.3,2.6-.3.2-.5.4-.8.7-2.8,2.2-5.4,1.1-9.4-1-1.1-.6-2.2-1.1-3.3-1.6-2.6-1-6.3-1.4-9.2.5-.7.4-1.2.9-1.8,1.3-.9.8-1.6,1.4-2.7,1.6-2.8.6-5-.5-7.6-1.8-2.3-1.2-4.6-2.3-7.5-2.4-.4,0-1.2,0-2.5.2-1.7.5-2.9,1.4-3.9,2.3-.5.4-1,.8-1.5,1.1-1.9,1.2-4.7.9-6.5.2-1-.4-2-.9-3-1.4-3.6-1.8-8.2-4.2-12.7-.7-.3.2-.6.5-.9.7-1.2,1-2.1,1.8-3.7,1.9-2.2.2-4.3-.4-6.9-1.9-2.2-1.3-5.1-2.7-8.8-2.3-2.4.2-3.9,1.4-5.3,2.6-.3.2-.5.5-.8.7-2.8,2.2-5.4,1.1-9.4-1-1.1-.6-2.2-1.1-3.3-1.6-2.6-1-6.3-1.4-9.2.5-.7.4-1.2.9-1.8,1.3-.9.8-1.6,1.4-2.7,1.6-2.8.6-5-.5-7.6-1.8-2.3-1.2-4.7-2.4-7.6-2.4v-4.3c2.2,0,4.2,1,6.2,2ZM222.1,109.9H67c-1.1,0-2-.9-2-2v-8.7c2.2,0,4.2,1,6.2,2,2.7,1.4,5.8,2.9,9.6,2.1,1.8-.4,3-1.4,4-2.3.5-.4.9-.8,1.4-1.1,1.9-1.2,4.7-.9,6.5-.2,1,.4,2,.9,3,1.4,2.3,1.2,4.9,2.5,7.6,2.5h0c1.7,0,3.4-.5,5.1-1.8.3-.2.6-.5.9-.7,1.2-1,2.2-1.8,3.7-1.9,2.2-.2,4.3.4,6.9,1.9,2.2,1.3,5.1,2.7,8.8,2.3,2.4-.2,3.9-1.4,5.3-2.6.3-.2.5-.4.8-.7,2.8-2.2,5.4-1.1,9.4,1,1.1.6,2.2,1.1,3.3,1.6,2.6,1,6.3,1.4,9.2-.5.7-.4,1.2-.9,1.7-1.3.9-.8,1.7-1.4,2.8-1.7.6-.2,1-.2,1.2-.2h.4c2.2,0,4.2,1,6.3,2.1,2.7,1.4,5.8,2.9,9.6,2.1,1.8-.4,3-1.4,4-2.3.5-.4.9-.8,1.4-1.1,1.9-1.2,4.7-.9,6.5-.2,1,.4,2,.9,3,1.4,3.6,1.8,8.2,4.2,12.6.7.3-.2.6-.5.9-.7,1.2-1,2.2-1.8,3.7-1.9,2.2-.2,4.3.4,6.9,1.9,1.7,1,3.8,2,6.3,2.3v4.4c0,1.1-.9,2-2,2Z"/>
</svg>